<?xml version="1.0" standalone="no"?>
<!DOCTYPE svg PUBLIC "-//W3C//DTD SVG 20010904//EN"
 "http://www.w3.org/TR/2001/REC-SVG-20010904/DTD/svg10.dtd">
<svg version="1.0" xmlns="http://www.w3.org/2000/svg"
 width="485.000000pt" height="485.000000pt" viewBox="0 0 485.000000 485.000000"
 preserveAspectRatio="xMidYMid meet">
<metadata>
Created by potrace 1.11, written by Peter Selinger 2001-2013
</metadata>
<g transform="translate(0.000000,485.000000) scale(0.100000,-0.100000)"
fill="#000000" stroke="none">
<path d="M3739 4756 c-2 -2 -23 -6 -47 -10 -90 -12 -248 -64 -326 -108 -11 -6
-40 -22 -65 -36 -122 -67 -291 -218 -406 -362 -164 -204 -300 -445 -513 -910
-16 -36 -49 -105 -72 -155 -23 -49 -49 -106 -57 -125 -9 -19 -30 -66 -48 -105
-32 -68 -58 -125 -105 -230 -12 -27 -36 -79 -52 -115 -16 -36 -36 -81 -44
-100 -12 -31 -27 -42 -105 -79 -88 -42 -101 -44 -105 -18 -5 33 -52 130 -100
202 -83 128 -200 232 -331 299 -335 169 -753 98 -1012 -173 -243 -253 -312
-630 -174 -946 111 -253 330 -436 593 -496 77 -17 249 -19 366 -3 111 15 212
48 325 105 l77 38 -33 -92 c-44 -123 -62 -237 -63 -387 0 -153 17 -238 69
-348 115 -247 312 -408 584 -477 82 -21 120 -26 210 -24 86 2 218 22 248 38 1
1 13 4 26 8 55 14 201 95 261 145 87 72 170 173 218 266 73 140 101 253 103
407 2 260 -120 514 -324 676 -59 47 -160 108 -198 121 -9 3 -4 23 13 69 24 60
29 66 85 94 129 65 570 275 579 275 9 0 505 250 584 295 358 203 607 437 742
701 73 142 129 339 114 399 -7 29 -47 58 -80 58 -20 0 -163 -57 -351 -138 -16
-8 -86 -37 -155 -65 -69 -29 -143 -60 -165 -70 -22 -9 -161 -68 -310 -129
-148 -62 -279 -116 -290 -121 -52 -25 -250 -108 -253 -106 -3 4 29 83 238 586
95 228 181 438 192 465 11 28 31 74 44 103 13 29 24 55 24 58 0 3 6 20 14 37
8 18 36 84 61 147 26 63 56 134 66 158 40 86 33 139 -19 166 -16 8 -31 14 -33
12z m-2638 -2324 c185 -90 232 -328 94 -480 -20 -23 -62 -54 -93 -69 -75 -37
-181 -38 -256 -3 -136 65 -206 218 -166 362 24 85 118 181 204 208 51 16 167
6 217 -18z m1354 -1195 c109 -56 169 -151 169 -272 0 -119 -60 -217 -169 -273
-68 -35 -186 -38 -258 -5 -103 47 -177 164 -177 278 0 121 82 242 192 283 74
29 175 24 243 -11z"/>
</g>
</svg>
